<mxfile host="app.diagrams.net" agent="Mozilla/5.0 (Windows NT 10.0; Win64; x64; rv:131.0) Gecko/20100101 Firefox/131.0" version="24.8.3">
  <diagram name="Page-1" id="7e0a89b8-554c-2b80-1dc8-d5c74ca68de4">
    <mxGraphModel dx="1975" dy="1080" grid="1" gridSize="10" guides="1" tooltips="1" connect="1" arrows="1" fold="1" page="1" pageScale="1" pageWidth="1654" pageHeight="1169" background="none" math="0" shadow="0">
      <root>
        <mxCell id="0" />
        <mxCell id="1" parent="0" />
        <mxCell id="c6Y1Lu46FK5Pjhcwvuf1-1" value="motherboard" style="whiteSpace=wrap;html=1;aspect=fixed;verticalAlign=bottom;" vertex="1" parent="1">
          <mxGeometry x="280" y="60" width="390" height="390" as="geometry" />
        </mxCell>
        <mxCell id="c6Y1Lu46FK5Pjhcwvuf1-2" value="bat1" style="shape=cylinder3;whiteSpace=wrap;html=1;boundedLbl=1;backgroundOutline=1;size=15;" vertex="1" parent="1">
          <mxGeometry x="20" y="20" width="60" height="80" as="geometry" />
        </mxCell>
        <mxCell id="c6Y1Lu46FK5Pjhcwvuf1-3" value="bat2" style="shape=cylinder3;whiteSpace=wrap;html=1;boundedLbl=1;backgroundOutline=1;size=15;" vertex="1" parent="1">
          <mxGeometry x="20" y="200" width="60" height="80" as="geometry" />
        </mxCell>
        <mxCell id="c6Y1Lu46FK5Pjhcwvuf1-35" style="edgeStyle=orthogonalEdgeStyle;rounded=0;orthogonalLoop=1;jettySize=auto;html=1;exitX=1;exitY=0.5;exitDx=0;exitDy=0;entryX=0;entryY=0.5;entryDx=0;entryDy=0;endArrow=none;endFill=0;shape=link;" edge="1" parent="1" source="c6Y1Lu46FK5Pjhcwvuf1-6" target="c6Y1Lu46FK5Pjhcwvuf1-34">
          <mxGeometry relative="1" as="geometry" />
        </mxCell>
        <mxCell id="c6Y1Lu46FK5Pjhcwvuf1-6" value="5V raspi" style="rounded=0;whiteSpace=wrap;html=1;" vertex="1" parent="1">
          <mxGeometry x="330" y="90" width="120" height="60" as="geometry" />
        </mxCell>
        <mxCell id="c6Y1Lu46FK5Pjhcwvuf1-7" style="edgeStyle=orthogonalEdgeStyle;rounded=0;orthogonalLoop=1;jettySize=auto;html=1;exitX=0.5;exitY=0;exitDx=0;exitDy=0;exitPerimeter=0;entryX=0.003;entryY=0.113;entryDx=0;entryDy=0;entryPerimeter=0;endArrow=none;endFill=0;" edge="1" parent="1" source="c6Y1Lu46FK5Pjhcwvuf1-2" target="c6Y1Lu46FK5Pjhcwvuf1-1">
          <mxGeometry relative="1" as="geometry" />
        </mxCell>
        <mxCell id="c6Y1Lu46FK5Pjhcwvuf1-8" style="edgeStyle=orthogonalEdgeStyle;rounded=0;orthogonalLoop=1;jettySize=auto;html=1;exitX=0.5;exitY=1;exitDx=0;exitDy=0;exitPerimeter=0;entryX=-0.003;entryY=0.156;entryDx=0;entryDy=0;entryPerimeter=0;endArrow=none;endFill=0;" edge="1" parent="1" source="c6Y1Lu46FK5Pjhcwvuf1-2" target="c6Y1Lu46FK5Pjhcwvuf1-1">
          <mxGeometry relative="1" as="geometry" />
        </mxCell>
        <mxCell id="c6Y1Lu46FK5Pjhcwvuf1-9" value="+" style="text;html=1;align=center;verticalAlign=middle;resizable=0;points=[];autosize=1;strokeColor=none;fillColor=none;" vertex="1" parent="1">
          <mxGeometry x="85" y="8" width="30" height="30" as="geometry" />
        </mxCell>
        <mxCell id="c6Y1Lu46FK5Pjhcwvuf1-12" value="&lt;div&gt;-&lt;br&gt;&lt;/div&gt;" style="text;html=1;align=center;verticalAlign=middle;whiteSpace=wrap;rounded=0;" vertex="1" parent="1">
          <mxGeometry x="60" y="100" width="60" height="30" as="geometry" />
        </mxCell>
        <mxCell id="c6Y1Lu46FK5Pjhcwvuf1-16" style="edgeStyle=orthogonalEdgeStyle;rounded=0;orthogonalLoop=1;jettySize=auto;html=1;exitX=0.5;exitY=0;exitDx=0;exitDy=0;exitPerimeter=0;entryX=0.003;entryY=0.349;entryDx=0;entryDy=0;entryPerimeter=0;endArrow=none;endFill=0;" edge="1" parent="1" source="c6Y1Lu46FK5Pjhcwvuf1-3" target="c6Y1Lu46FK5Pjhcwvuf1-1">
          <mxGeometry relative="1" as="geometry" />
        </mxCell>
        <mxCell id="c6Y1Lu46FK5Pjhcwvuf1-18" style="edgeStyle=orthogonalEdgeStyle;rounded=0;orthogonalLoop=1;jettySize=auto;html=1;entryX=0.003;entryY=0.413;entryDx=0;entryDy=0;entryPerimeter=0;endArrow=none;endFill=0;exitX=0.25;exitY=1;exitDx=0;exitDy=0;" edge="1" parent="1" source="c6Y1Lu46FK5Pjhcwvuf1-24" target="c6Y1Lu46FK5Pjhcwvuf1-1">
          <mxGeometry relative="1" as="geometry" />
        </mxCell>
        <mxCell id="c6Y1Lu46FK5Pjhcwvuf1-22" value="+" style="text;html=1;align=center;verticalAlign=middle;resizable=0;points=[];autosize=1;strokeColor=none;fillColor=none;" vertex="1" parent="1">
          <mxGeometry x="50" y="150" width="30" height="30" as="geometry" />
        </mxCell>
        <mxCell id="c6Y1Lu46FK5Pjhcwvuf1-27" value="" style="edgeStyle=orthogonalEdgeStyle;rounded=0;orthogonalLoop=1;jettySize=auto;html=1;exitX=0.5;exitY=1;exitDx=0;exitDy=0;exitPerimeter=0;entryX=0.003;entryY=0.413;entryDx=0;entryDy=0;entryPerimeter=0;endArrow=none;endFill=0;" edge="1" parent="1" source="c6Y1Lu46FK5Pjhcwvuf1-3" target="c6Y1Lu46FK5Pjhcwvuf1-24">
          <mxGeometry relative="1" as="geometry">
            <mxPoint x="50" y="280" as="sourcePoint" />
            <mxPoint x="281" y="231" as="targetPoint" />
          </mxGeometry>
        </mxCell>
        <mxCell id="c6Y1Lu46FK5Pjhcwvuf1-24" value="&lt;div&gt;-&lt;br&gt;&lt;/div&gt;" style="text;html=1;align=center;verticalAlign=middle;whiteSpace=wrap;rounded=0;" vertex="1" parent="1">
          <mxGeometry x="35" y="270" width="60" height="30" as="geometry" />
        </mxCell>
        <mxCell id="c6Y1Lu46FK5Pjhcwvuf1-31" value="5V elec" style="rounded=0;whiteSpace=wrap;html=1;" vertex="1" parent="1">
          <mxGeometry x="390" y="180" width="120" height="60" as="geometry" />
        </mxCell>
        <mxCell id="c6Y1Lu46FK5Pjhcwvuf1-34" value="raspi" style="rounded=0;whiteSpace=wrap;html=1;" vertex="1" parent="1">
          <mxGeometry x="530" y="100" width="120" height="60" as="geometry" />
        </mxCell>
        <mxCell id="c6Y1Lu46FK5Pjhcwvuf1-38" value="" style="endArrow=none;html=1;rounded=0;entryX=0;entryY=0.5;entryDx=0;entryDy=0;exitX=0.003;exitY=0.159;exitDx=0;exitDy=0;exitPerimeter=0;shape=link;" edge="1" parent="1" source="c6Y1Lu46FK5Pjhcwvuf1-1" target="c6Y1Lu46FK5Pjhcwvuf1-6">
          <mxGeometry width="50" height="50" relative="1" as="geometry">
            <mxPoint x="530" y="490" as="sourcePoint" />
            <mxPoint x="580" y="440" as="targetPoint" />
          </mxGeometry>
        </mxCell>
        <mxCell id="c6Y1Lu46FK5Pjhcwvuf1-42" value="" style="endArrow=none;html=1;rounded=0;entryX=0;entryY=0.5;entryDx=0;entryDy=0;exitX=-0.003;exitY=0.159;exitDx=0;exitDy=0;exitPerimeter=0;shape=link;" edge="1" parent="1" source="c6Y1Lu46FK5Pjhcwvuf1-1" target="c6Y1Lu46FK5Pjhcwvuf1-31">
          <mxGeometry width="50" height="50" relative="1" as="geometry">
            <mxPoint x="291" y="142" as="sourcePoint" />
            <mxPoint x="340" y="130" as="targetPoint" />
          </mxGeometry>
        </mxCell>
        <mxCell id="c6Y1Lu46FK5Pjhcwvuf1-43" value="high current power generation (6V, 24V...)" style="rounded=0;whiteSpace=wrap;html=1;" vertex="1" parent="1">
          <mxGeometry x="310" y="300" width="120" height="60" as="geometry" />
        </mxCell>
        <mxCell id="c6Y1Lu46FK5Pjhcwvuf1-44" value="" style="endArrow=none;html=1;rounded=0;entryX=0.25;entryY=0;entryDx=0;entryDy=0;exitX=-0.003;exitY=0.382;exitDx=0;exitDy=0;exitPerimeter=0;shape=link;" edge="1" parent="1" source="c6Y1Lu46FK5Pjhcwvuf1-1" target="c6Y1Lu46FK5Pjhcwvuf1-43">
          <mxGeometry width="50" height="50" relative="1" as="geometry">
            <mxPoint x="289" y="142" as="sourcePoint" />
            <mxPoint x="400" y="220" as="targetPoint" />
          </mxGeometry>
        </mxCell>
        <mxCell id="c6Y1Lu46FK5Pjhcwvuf1-45" value="" style="endArrow=none;html=1;rounded=0;entryX=0.151;entryY=0.997;entryDx=0;entryDy=0;exitX=0.25;exitY=1;exitDx=0;exitDy=0;shape=link;entryPerimeter=0;" edge="1" parent="1" source="c6Y1Lu46FK5Pjhcwvuf1-43" target="c6Y1Lu46FK5Pjhcwvuf1-1">
          <mxGeometry width="50" height="50" relative="1" as="geometry">
            <mxPoint x="289" y="229" as="sourcePoint" />
            <mxPoint x="350" y="310" as="targetPoint" />
          </mxGeometry>
        </mxCell>
        <mxCell id="c6Y1Lu46FK5Pjhcwvuf1-47" style="edgeStyle=orthogonalEdgeStyle;rounded=0;orthogonalLoop=1;jettySize=auto;html=1;entryX=0.75;entryY=1;entryDx=0;entryDy=0;shape=link;exitX=0.203;exitY=1.005;exitDx=0;exitDy=0;exitPerimeter=0;" edge="1" parent="1" source="c6Y1Lu46FK5Pjhcwvuf1-1" target="c6Y1Lu46FK5Pjhcwvuf1-31">
          <mxGeometry relative="1" as="geometry">
            <mxPoint x="360" y="460" as="sourcePoint" />
            <Array as="points">
              <mxPoint x="359" y="410" />
              <mxPoint x="480" y="410" />
            </Array>
          </mxGeometry>
        </mxCell>
        <mxCell id="c6Y1Lu46FK5Pjhcwvuf1-46" value="power connector" style="text;html=1;align=center;verticalAlign=middle;whiteSpace=wrap;rounded=0;" vertex="1" parent="1">
          <mxGeometry x="250" y="450" width="60" height="30" as="geometry" />
        </mxCell>
        <mxCell id="c6Y1Lu46FK5Pjhcwvuf1-48" value="CAN" style="rounded=0;whiteSpace=wrap;html=1;" vertex="1" parent="1">
          <mxGeometry x="520" y="270" width="120" height="60" as="geometry" />
        </mxCell>
        <mxCell id="c6Y1Lu46FK5Pjhcwvuf1-49" value="" style="endArrow=none;html=1;rounded=0;entryX=0.5;entryY=1;entryDx=0;entryDy=0;" edge="1" parent="1" source="c6Y1Lu46FK5Pjhcwvuf1-48" target="c6Y1Lu46FK5Pjhcwvuf1-34">
          <mxGeometry width="50" height="50" relative="1" as="geometry">
            <mxPoint x="530" y="490" as="sourcePoint" />
            <mxPoint x="580" y="440" as="targetPoint" />
          </mxGeometry>
        </mxCell>
        <mxCell id="c6Y1Lu46FK5Pjhcwvuf1-50" value="SPI" style="text;html=1;align=center;verticalAlign=middle;whiteSpace=wrap;rounded=0;" vertex="1" parent="1">
          <mxGeometry x="580" y="190" width="60" height="30" as="geometry" />
        </mxCell>
        <mxCell id="c6Y1Lu46FK5Pjhcwvuf1-51" value="" style="endArrow=none;html=1;rounded=0;entryX=0.5;entryY=1;entryDx=0;entryDy=0;exitX=0.772;exitY=1.003;exitDx=0;exitDy=0;exitPerimeter=0;" edge="1" parent="1" source="c6Y1Lu46FK5Pjhcwvuf1-1" target="c6Y1Lu46FK5Pjhcwvuf1-48">
          <mxGeometry width="50" height="50" relative="1" as="geometry">
            <mxPoint x="370" y="450" as="sourcePoint" />
            <mxPoint x="420" y="400" as="targetPoint" />
          </mxGeometry>
        </mxCell>
        <mxCell id="c6Y1Lu46FK5Pjhcwvuf1-52" value="CAN Connector" style="text;html=1;align=center;verticalAlign=middle;whiteSpace=wrap;rounded=0;" vertex="1" parent="1">
          <mxGeometry x="520" y="480" width="60" height="30" as="geometry" />
        </mxCell>
        <mxCell id="c6Y1Lu46FK5Pjhcwvuf1-53" style="edgeStyle=orthogonalEdgeStyle;rounded=0;orthogonalLoop=1;jettySize=auto;html=1;exitX=0.5;exitY=1;exitDx=0;exitDy=0;" edge="1" parent="1" source="c6Y1Lu46FK5Pjhcwvuf1-24" target="c6Y1Lu46FK5Pjhcwvuf1-24">
          <mxGeometry relative="1" as="geometry" />
        </mxCell>
        <mxCell id="c6Y1Lu46FK5Pjhcwvuf1-55" value="Motor board" style="whiteSpace=wrap;html=1;aspect=fixed;verticalAlign=bottom;" vertex="1" parent="1">
          <mxGeometry x="260" y="750" width="470" height="470" as="geometry" />
        </mxCell>
        <mxCell id="c6Y1Lu46FK5Pjhcwvuf1-57" value="" style="endArrow=none;html=1;rounded=0;exitX=0.219;exitY=-0.002;exitDx=0;exitDy=0;exitPerimeter=0;entryX=0.208;entryY=0.995;entryDx=0;entryDy=0;entryPerimeter=0;shape=link;" edge="1" parent="1" source="c6Y1Lu46FK5Pjhcwvuf1-55" target="c6Y1Lu46FK5Pjhcwvuf1-1">
          <mxGeometry width="50" height="50" relative="1" as="geometry">
            <mxPoint x="370" y="570" as="sourcePoint" />
            <mxPoint x="420" y="520" as="targetPoint" />
          </mxGeometry>
        </mxCell>
        <mxCell id="c6Y1Lu46FK5Pjhcwvuf1-58" value="" style="endArrow=none;html=1;rounded=0;exitX=0.219;exitY=-0.002;exitDx=0;exitDy=0;exitPerimeter=0;entryX=0.208;entryY=0.995;entryDx=0;entryDy=0;entryPerimeter=0;shape=link;" edge="1" parent="1">
          <mxGeometry width="50" height="50" relative="1" as="geometry">
            <mxPoint x="342" y="750" as="sourcePoint" />
            <mxPoint x="340" y="449" as="targetPoint" />
          </mxGeometry>
        </mxCell>
        <mxCell id="c6Y1Lu46FK5Pjhcwvuf1-59" value="courant for et faible sont isolés" style="text;html=1;align=center;verticalAlign=middle;whiteSpace=wrap;rounded=0;" vertex="1" parent="1">
          <mxGeometry x="360" y="585" width="130" height="30" as="geometry" />
        </mxCell>
        <mxCell id="c6Y1Lu46FK5Pjhcwvuf1-62" value="Power (H-bridge courant forts)" style="whiteSpace=wrap;html=1;aspect=fixed;" vertex="1" parent="1">
          <mxGeometry x="280" y="960" width="200" height="200" as="geometry" />
        </mxCell>
        <mxCell id="c6Y1Lu46FK5Pjhcwvuf1-63" value="Control (µcourants)" style="whiteSpace=wrap;html=1;aspect=fixed;" vertex="1" parent="1">
          <mxGeometry x="510" y="770" width="200" height="200" as="geometry" />
        </mxCell>
        <mxCell id="c6Y1Lu46FK5Pjhcwvuf1-64" value="" style="endArrow=none;html=1;rounded=0;exitX=0.25;exitY=0;exitDx=0;exitDy=0;entryX=0.172;entryY=0.011;entryDx=0;entryDy=0;entryPerimeter=0;shape=link;" edge="1" parent="1" source="c6Y1Lu46FK5Pjhcwvuf1-62" target="c6Y1Lu46FK5Pjhcwvuf1-55">
          <mxGeometry width="50" height="50" relative="1" as="geometry">
            <mxPoint x="370" y="730" as="sourcePoint" />
            <mxPoint x="420" y="680" as="targetPoint" />
          </mxGeometry>
        </mxCell>
        <mxCell id="c6Y1Lu46FK5Pjhcwvuf1-65" value="" style="endArrow=none;html=1;rounded=0;exitX=0;exitY=0.25;exitDx=0;exitDy=0;entryX=0.228;entryY=0.004;entryDx=0;entryDy=0;entryPerimeter=0;shape=link;" edge="1" parent="1" source="c6Y1Lu46FK5Pjhcwvuf1-63" target="c6Y1Lu46FK5Pjhcwvuf1-55">
          <mxGeometry width="50" height="50" relative="1" as="geometry">
            <mxPoint x="340" y="970" as="sourcePoint" />
            <mxPoint x="351" y="765" as="targetPoint" />
          </mxGeometry>
        </mxCell>
        <mxCell id="c6Y1Lu46FK5Pjhcwvuf1-68" value="" style="endArrow=none;html=1;rounded=0;entryX=0.777;entryY=1.003;entryDx=0;entryDy=0;entryPerimeter=0;" edge="1" parent="1" source="c6Y1Lu46FK5Pjhcwvuf1-63" target="c6Y1Lu46FK5Pjhcwvuf1-1">
          <mxGeometry width="50" height="50" relative="1" as="geometry">
            <mxPoint x="370" y="870" as="sourcePoint" />
            <mxPoint x="420" y="820" as="targetPoint" />
          </mxGeometry>
        </mxCell>
        <mxCell id="c6Y1Lu46FK5Pjhcwvuf1-69" value="" style="endArrow=none;html=1;rounded=0;fillColor=#f8cecc;strokeColor=#b85450;exitX=1;exitY=0.5;exitDx=0;exitDy=0;" edge="1" parent="1" source="c6Y1Lu46FK5Pjhcwvuf1-62">
          <mxGeometry width="50" height="50" relative="1" as="geometry">
            <mxPoint x="520" y="1020" as="sourcePoint" />
            <mxPoint x="570" y="970" as="targetPoint" />
          </mxGeometry>
        </mxCell>
        <mxCell id="c6Y1Lu46FK5Pjhcwvuf1-70" value="Text" style="text;html=1;align=center;verticalAlign=middle;whiteSpace=wrap;rounded=0;" vertex="1" parent="1">
          <mxGeometry x="360" y="650" width="60" height="30" as="geometry" />
        </mxCell>
        <mxCell id="c6Y1Lu46FK5Pjhcwvuf1-71" value="si pas d&#39;isolation totale les masses sont connectées ici" style="text;html=1;align=center;verticalAlign=middle;whiteSpace=wrap;rounded=0;fillColor=#f8cecc;strokeColor=#b85450;" vertex="1" parent="1">
          <mxGeometry x="510" y="1020" width="130" height="90" as="geometry" />
        </mxCell>
        <mxCell id="c6Y1Lu46FK5Pjhcwvuf1-72" value="carte X..." style="whiteSpace=wrap;html=1;aspect=fixed;" vertex="1" parent="1">
          <mxGeometry x="210" y="1310" width="540" height="540" as="geometry" />
        </mxCell>
        <mxCell id="c6Y1Lu46FK5Pjhcwvuf1-73" value="" style="endArrow=none;html=1;rounded=0;entryX=0.115;entryY=0.994;entryDx=0;entryDy=0;entryPerimeter=0;exitX=0.185;exitY=0.006;exitDx=0;exitDy=0;exitPerimeter=0;shape=link;" edge="1" parent="1" source="c6Y1Lu46FK5Pjhcwvuf1-72" target="c6Y1Lu46FK5Pjhcwvuf1-55">
          <mxGeometry width="50" height="50" relative="1" as="geometry">
            <mxPoint x="370" y="1390" as="sourcePoint" />
            <mxPoint x="420" y="1340" as="targetPoint" />
          </mxGeometry>
        </mxCell>
        <mxCell id="c6Y1Lu46FK5Pjhcwvuf1-74" value="" style="endArrow=none;html=1;rounded=0;entryX=0.115;entryY=0.994;entryDx=0;entryDy=0;entryPerimeter=0;exitX=0.185;exitY=0.006;exitDx=0;exitDy=0;exitPerimeter=0;shape=link;" edge="1" parent="1">
          <mxGeometry width="50" height="50" relative="1" as="geometry">
            <mxPoint x="350" y="1316" as="sourcePoint" />
            <mxPoint x="354" y="1220" as="targetPoint" />
          </mxGeometry>
        </mxCell>
        <mxCell id="c6Y1Lu46FK5Pjhcwvuf1-75" value="" style="endArrow=none;html=1;rounded=0;entryX=0.75;entryY=1;entryDx=0;entryDy=0;exitX=0.75;exitY=0;exitDx=0;exitDy=0;" edge="1" parent="1" source="c6Y1Lu46FK5Pjhcwvuf1-72" target="c6Y1Lu46FK5Pjhcwvuf1-55">
          <mxGeometry width="50" height="50" relative="1" as="geometry">
            <mxPoint x="370" y="1390" as="sourcePoint" />
            <mxPoint x="420" y="1340" as="targetPoint" />
          </mxGeometry>
        </mxCell>
        <mxCell id="c6Y1Lu46FK5Pjhcwvuf1-76" value="power" style="text;html=1;align=center;verticalAlign=middle;whiteSpace=wrap;rounded=0;" vertex="1" parent="1">
          <mxGeometry x="230" y="1240" width="60" height="30" as="geometry" />
        </mxCell>
        <mxCell id="c6Y1Lu46FK5Pjhcwvuf1-78" value="CAN Connector" style="text;html=1;align=center;verticalAlign=middle;whiteSpace=wrap;rounded=0;" vertex="1" parent="1">
          <mxGeometry x="620" y="1250" width="60" height="30" as="geometry" />
        </mxCell>
        <mxCell id="c6Y1Lu46FK5Pjhcwvuf1-79" value="&lt;div&gt;les cartes forment une chaine, et on toujours deux connecteurs de puissances et de CAN&lt;/div&gt;&lt;div&gt;les cartes sont chainées pour que le propre soit alimenté par le sale (for appels de courant avant les faibles)&lt;/div&gt;&lt;div&gt;&lt;br&gt;&lt;/div&gt;les résistances de terminaison CAN sont juste deux résistances 120ohm sur le connecteur à mettre au bout" style="text;html=1;align=center;verticalAlign=middle;whiteSpace=wrap;rounded=0;" vertex="1" parent="1">
          <mxGeometry x="40" y="1340" width="150" height="210" as="geometry" />
        </mxCell>
        <mxCell id="c6Y1Lu46FK5Pjhcwvuf1-81" value="cette carte peut mesurer les tensions et les courants en optionel (soit via ADC raspi soit via µC en SPI)" style="text;html=1;align=center;verticalAlign=middle;whiteSpace=wrap;rounded=0;fillColor=#d5e8d4;strokeColor=#82b366;" vertex="1" parent="1">
          <mxGeometry x="710" y="320" width="150" height="100" as="geometry" />
        </mxCell>
      </root>
    </mxGraphModel>
  </diagram>
</mxfile>
